<svg xmlns="http://www.w3.org/2000/svg" width="1280" height="704" viewBox="0 0 1280 704" role="img" aria-label="AI entry points: lifecycle stages × leverage areas (includes project management)">
  <rect x="0" y="0" width="1280" height="704" fill="#ffffff" />
  <text x="640" y="34" text-anchor="middle" font-family="system-ui, -apple-system, Segoe UI, Roboto, Helvetica, Arial" font-size="16" fill="#262626">AI enablement entry points: lifecycle stages × leverage areas</text>

  <rect x="40" y="70" width="1200" height="604" rx="14" fill="#fafafa" stroke="#f0f0f0" />

  <text x="70" y="102" font-family="system-ui, -apple-system, Segoe UI, Roboto, Helvetica, Arial" font-size="11" fill="#595959">How to read: each row is a lifecycle stage; left→right are practical AI entry points for that stage (a workbench, not a table).</text>

  <rect x="70" y="110" width="1130" height="56" rx="12" fill="#ffffff" stroke="#d9d9d9" />
  <rect x="90" y="122" width="160" height="32" rx="16" fill="#fafafa" stroke="#d9d9d9" />
  <text x="170" y="143" text-anchor="middle" font-family="system-ui, -apple-system, Segoe UI, Roboto, Helvetica, Arial" font-size="12" fill="#262626">Requirements/Planning</text>
  <rect x="270" y="121" width="210" height="34" rx="10" fill="#f6ffed" stroke="#b7eb8f" /><text x="375" y="143" text-anchor="middle" font-family="system-ui, -apple-system, Segoe UI, Roboto, Helvetica, Arial" font-size="11" fill="#237804">Notes → stories/acceptance</text>
  <rect x="500" y="121" width="210" height="34" rx="10" fill="#fff7e6" stroke="#ffd591" /><text x="605" y="143" text-anchor="middle" font-family="system-ui, -apple-system, Segoe UI, Roboto, Helvetica, Arial" font-size="11" fill="#ad4e00">Scope/dependency checks</text>
  <rect x="730" y="121" width="210" height="34" rx="10" fill="#f9f0ff" stroke="#d3adf7" /><text x="835" y="143" text-anchor="middle" font-family="system-ui, -apple-system, Segoe UI, Roboto, Helvetica, Arial" font-size="11" fill="#531dab">Splitting/estimation assist</text>
  <rect x="960" y="121" width="210" height="34" rx="10" fill="#e6f7ff" stroke="#91d5ff" /><text x="1065" y="143" text-anchor="middle" font-family="system-ui, -apple-system, Segoe UI, Roboto, Helvetica, Arial" font-size="11" fill="#0050b3">Plan deviation alerts</text>

  <rect x="70" y="174" width="1130" height="56" rx="12" fill="#ffffff" stroke="#d9d9d9" />
  <rect x="90" y="186" width="160" height="32" rx="16" fill="#fafafa" stroke="#d9d9d9" />
  <text x="170" y="207" text-anchor="middle" font-family="system-ui, -apple-system, Segoe UI, Roboto, Helvetica, Arial" font-size="12" fill="#262626">Design</text>
  <rect x="270" y="185" width="210" height="34" rx="10" fill="#f6ffed" stroke="#b7eb8f" /><text x="375" y="207" text-anchor="middle" font-family="system-ui, -apple-system, Segoe UI, Roboto, Helvetica, Arial" font-size="11" fill="#237804">ADR/contract structuring</text>
  <rect x="500" y="185" width="210" height="34" rx="10" fill="#fff7e6" stroke="#ffd591" /><text x="605" y="207" text-anchor="middle" font-family="system-ui, -apple-system, Segoe UI, Roboto, Helvetica, Arial" font-size="11" fill="#ad4e00">NFR gap hints</text>
  <rect x="730" y="185" width="210" height="34" rx="10" fill="#f9f0ff" stroke="#d3adf7" /><text x="835" y="207" text-anchor="middle" font-family="system-ui, -apple-system, Segoe UI, Roboto, Helvetica, Arial" font-size="11" fill="#531dab">Component/sequence diagram drafts</text>
  <rect x="960" y="185" width="210" height="34" rx="10" fill="#fff1f0" stroke="#ffa39e" /><text x="1065" y="207" text-anchor="middle" font-family="system-ui, -apple-system, Segoe UI, Roboto, Helvetica, Arial" font-size="11" fill="#a8071a">Design checkpoint suggestions</text>

  <rect x="70" y="238" width="1130" height="56" rx="12" fill="#ffffff" stroke="#d9d9d9" />
  <rect x="90" y="250" width="160" height="32" rx="16" fill="#fafafa" stroke="#d9d9d9" />
  <text x="170" y="271" text-anchor="middle" font-family="system-ui, -apple-system, Segoe UI, Roboto, Helvetica, Arial" font-size="12" fill="#262626">Coding/Refactoring</text>
  <rect x="270" y="249" width="210" height="34" rx="10" fill="#f6ffed" stroke="#b7eb8f" /><text x="375" y="271" text-anchor="middle" font-family="system-ui, -apple-system, Segoe UI, Roboto, Helvetica, Arial" font-size="11" fill="#237804">PR summaries/docs sync</text>
  <rect x="500" y="249" width="210" height="34" rx="10" fill="#fff7e6" stroke="#ffd591" /><text x="605" y="271" text-anchor="middle" font-family="system-ui, -apple-system, Segoe UI, Roboto, Helvetica, Arial" font-size="11" fill="#ad4e00">Smells/refactor suggestions</text>
  <rect x="730" y="249" width="210" height="34" rx="10" fill="#f9f0ff" stroke="#d3adf7" /><text x="835" y="271" text-anchor="middle" font-family="system-ui, -apple-system, Segoe UI, Roboto, Helvetica, Arial" font-size="11" fill="#531dab">Completion/scaffold generation</text>
  <rect x="960" y="249" width="210" height="34" rx="10" fill="#e6f7ff" stroke="#91d5ff" /><text x="1065" y="271" text-anchor="middle" font-family="system-ui, -apple-system, Segoe UI, Roboto, Helvetica, Arial" font-size="11" fill="#0050b3">Hotspots/complexity clustering</text>

  <rect x="70" y="302" width="1130" height="56" rx="12" fill="#ffffff" stroke="#d9d9d9" />
  <rect x="90" y="314" width="160" height="32" rx="16" fill="#fafafa" stroke="#d9d9d9" />
  <text x="170" y="335" text-anchor="middle" font-family="system-ui, -apple-system, Segoe UI, Roboto, Helvetica, Arial" font-size="12" fill="#262626">Review/CI</text>
  <rect x="270" y="313" width="210" height="34" rx="10" fill="#f6ffed" stroke="#b7eb8f" /><text x="375" y="335" text-anchor="middle" font-family="system-ui, -apple-system, Segoe UI, Roboto, Helvetica, Arial" font-size="11" fill="#237804">Test cases structuring/summaries</text>
  <rect x="500" y="313" width="210" height="34" rx="10" fill="#fff1f0" stroke="#ffa39e" /><text x="605" y="335" text-anchor="middle" font-family="system-ui, -apple-system, Segoe UI, Roboto, Helvetica, Arial" font-size="11" fill="#a8071a">Gate thresholds/exemption hints</text>
  <rect x="730" y="313" width="210" height="34" rx="10" fill="#e6f7ff" stroke="#91d5ff" /><text x="835" y="335" text-anchor="middle" font-family="system-ui, -apple-system, Segoe UI, Roboto, Helvetica, Arial" font-size="11" fill="#0050b3">Failure triage/clustering</text>
  <rect x="960" y="313" width="210" height="34" rx="10" fill="#f9f0ff" stroke="#d3adf7" /><text x="1065" y="335" text-anchor="middle" font-family="system-ui, -apple-system, Segoe UI, Roboto, Helvetica, Arial" font-size="11" fill="#531dab">Generate unit tests/test data</text>

  <rect x="70" y="366" width="1130" height="56" rx="12" fill="#ffffff" stroke="#d9d9d9" />
  <rect x="90" y="378" width="160" height="32" rx="16" fill="#fafafa" stroke="#d9d9d9" />
  <text x="170" y="399" text-anchor="middle" font-family="system-ui, -apple-system, Segoe UI, Roboto, Helvetica, Arial" font-size="12" fill="#262626">Delivery/Release</text>
  <rect x="270" y="377" width="210" height="34" rx="10" fill="#f6ffed" stroke="#b7eb8f" /><text x="375" y="399" text-anchor="middle" font-family="system-ui, -apple-system, Segoe UI, Roboto, Helvetica, Arial" font-size="11" fill="#237804">Release notes/impact list</text>
  <rect x="500" y="377" width="210" height="34" rx="10" fill="#fff7e6" stroke="#ffd591" /><text x="605" y="399" text-anchor="middle" font-family="system-ui, -apple-system, Segoe UI, Roboto, Helvetica, Arial" font-size="11" fill="#ad4e00">Canary/rollback validation</text>
  <rect x="730" y="377" width="210" height="34" rx="10" fill="#fff1f0" stroke="#ffa39e" /><text x="835" y="399" text-anchor="middle" font-family="system-ui, -apple-system, Segoe UI, Roboto, Helvetica, Arial" font-size="11" fill="#a8071a">Release risk explanation</text>
  <rect x="960" y="377" width="210" height="34" rx="10" fill="#e6f7ff" stroke="#91d5ff" /><text x="1065" y="399" text-anchor="middle" font-family="system-ui, -apple-system, Segoe UI, Roboto, Helvetica, Arial" font-size="11" fill="#0050b3">Change failure attribution</text>

  <rect x="70" y="430" width="1130" height="56" rx="12" fill="#ffffff" stroke="#d9d9d9" />
  <rect x="90" y="442" width="160" height="32" rx="16" fill="#fafafa" stroke="#d9d9d9" />
  <text x="170" y="463" text-anchor="middle" font-family="system-ui, -apple-system, Segoe UI, Roboto, Helvetica, Arial" font-size="12" fill="#262626">Run/Operations</text>
  <rect x="270" y="441" width="210" height="34" rx="10" fill="#f6ffed" stroke="#b7eb8f" /><text x="375" y="463" text-anchor="middle" font-family="system-ui, -apple-system, Segoe UI, Roboto, Helvetica, Arial" font-size="11" fill="#237804">Alert/ticket classification</text>
  <rect x="500" y="441" width="210" height="34" rx="10" fill="#e6f7ff" stroke="#91d5ff" /><text x="605" y="463" text-anchor="middle" font-family="system-ui, -apple-system, Segoe UI, Roboto, Helvetica, Arial" font-size="11" fill="#0050b3">Anomaly detection/baseline comparison</text>
  <rect x="730" y="441" width="210" height="34" rx="10" fill="#f9f0ff" stroke="#d3adf7" /><text x="835" y="463" text-anchor="middle" font-family="system-ui, -apple-system, Segoe UI, Roboto, Helvetica, Arial" font-size="11" fill="#531dab">Troubleshooting steps/runbook</text>
  <rect x="960" y="441" width="210" height="34" rx="10" fill="#ffffff" stroke="#d9d9d9" /><text x="1065" y="463" text-anchor="middle" font-family="system-ui, -apple-system, Segoe UI, Roboto, Helvetica, Arial" font-size="11" fill="#262626">MTTR breakdown</text>

  <rect x="70" y="494" width="1130" height="56" rx="12" fill="#ffffff" stroke="#d9d9d9" />
  <rect x="90" y="506" width="160" height="32" rx="16" fill="#fafafa" stroke="#d9d9d9" />
  <text x="170" y="527" text-anchor="middle" font-family="system-ui, -apple-system, Segoe UI, Roboto, Helvetica, Arial" font-size="12" fill="#262626">Retro/Improvement</text>
  <rect x="270" y="505" width="210" height="34" rx="10" fill="#f6ffed" stroke="#b7eb8f" /><text x="375" y="527" text-anchor="middle" font-family="system-ui, -apple-system, Segoe UI, Roboto, Helvetica, Arial" font-size="11" fill="#237804">Retro drafts/summaries</text>
  <rect x="500" y="505" width="210" height="34" rx="10" fill="#e6f7ff" stroke="#91d5ff" /><text x="605" y="527" text-anchor="middle" font-family="system-ui, -apple-system, Segoe UI, Roboto, Helvetica, Arial" font-size="11" fill="#0050b3">Trends/anomalies</text>
  <rect x="730" y="505" width="210" height="34" rx="10" fill="#ffffff" stroke="#d9d9d9" /><text x="835" y="527" text-anchor="middle" font-family="system-ui, -apple-system, Segoe UI, Roboto, Helvetica, Arial" font-size="11" fill="#262626">ORID → actions</text>
  <rect x="960" y="505" width="210" height="34" rx="10" fill="#fff1f0" stroke="#ffa39e" /><text x="1065" y="527" text-anchor="middle" font-family="system-ui, -apple-system, Segoe UI, Roboto, Helvetica, Arial" font-size="11" fill="#a8071a">Baseline hardening</text>

  <rect x="70" y="558" width="1130" height="56" rx="12" fill="#ffffff" stroke="#d9d9d9" />
  <rect x="90" y="570" width="160" height="32" rx="16" fill="#fafafa" stroke="#d9d9d9" />
  <text x="170" y="591" text-anchor="middle" font-family="system-ui, -apple-system, Segoe UI, Roboto, Helvetica, Arial" font-size="12" fill="#262626">Project management</text>
  <rect x="270" y="569" width="210" height="34" rx="10" fill="#f6ffed" stroke="#b7eb8f" /><text x="375" y="591" text-anchor="middle" font-family="system-ui, -apple-system, Segoe UI, Roboto, Helvetica, Arial" font-size="11" fill="#237804">Auto-update plans</text>
  <rect x="500" y="569" width="210" height="34" rx="10" fill="#fff1f0" stroke="#ffa39e" /><text x="605" y="591" text-anchor="middle" font-family="system-ui, -apple-system, Segoe UI, Roboto, Helvetica, Arial" font-size="11" fill="#a8071a">QA checkpoints/sampling</text>
  <rect x="730" y="569" width="210" height="34" rx="10" fill="#fff7e6" stroke="#ffd591" /><text x="835" y="591" text-anchor="middle" font-family="system-ui, -apple-system, Segoe UI, Roboto, Helvetica, Arial" font-size="11" fill="#ad4e00">Capture risks/blockers</text>
  <rect x="960" y="569" width="210" height="34" rx="10" fill="#e6f7ff" stroke="#91d5ff" /><text x="1065" y="591" text-anchor="middle" font-family="system-ui, -apple-system, Segoe UI, Roboto, Helvetica, Arial" font-size="11" fill="#0050b3">Track actions/compare impact</text>

  <rect x="70" y="630" width="1130" height="34" rx="12" fill="#ffffff" stroke="#d9d9d9" />
  <rect x="84" y="638" width="14" height="14" rx="4" fill="#f6ffed" stroke="#b7eb8f" /><text x="106" y="650" font-family="system-ui, -apple-system, Segoe UI, Roboto, Helvetica, Arial" font-size="11" fill="#595959">Structuring</text>
  <rect x="170" y="638" width="14" height="14" rx="4" fill="#fff7e6" stroke="#ffd591" /><text x="192" y="650" font-family="system-ui, -apple-system, Segoe UI, Roboto, Helvetica, Arial" font-size="11" fill="#595959">Risk hints</text>
  <rect x="270" y="638" width="14" height="14" rx="4" fill="#f9f0ff" stroke="#d3adf7" /><text x="292" y="650" font-family="system-ui, -apple-system, Segoe UI, Roboto, Helvetica, Arial" font-size="11" fill="#595959">Generation/automation</text>
  <rect x="380" y="638" width="14" height="14" rx="4" fill="#fff1f0" stroke="#ffa39e" /><text x="402" y="650" font-family="system-ui, -apple-system, Segoe UI, Roboto, Helvetica, Arial" font-size="11" fill="#595959">Gating/release</text>
  <rect x="490" y="638" width="14" height="14" rx="4" fill="#e6f7ff" stroke="#91d5ff" /><text x="512" y="650" font-family="system-ui, -apple-system, Segoe UI, Roboto, Helvetica, Arial" font-size="11" fill="#595959">Insights/attribution</text>
  <rect x="590" y="638" width="14" height="14" rx="4" fill="#ffffff" stroke="#d9d9d9" /><text x="612" y="650" font-family="system-ui, -apple-system, Segoe UI, Roboto, Helvetica, Arial" font-size="11" fill="#595959">Decision/retro</text>
</svg>